<svg xmlns="http://www.w3.org/2000/svg" width="760" height="170" viewBox="0 0 760 170" role="img" aria-label="Commit meteor shower from recent GitHub activity">
<style>text{font-family:ui-monospace,SFMono-Regular,Menlo,monospace}.m{animation:fall 3.8s linear var(--delay) infinite;opacity:0}@keyframes fall{0%{transform:translate(-24px,-24px);opacity:0}15%{opacity:1}70%,100%{transform:translate(35px,35px);opacity:0}}</style><rect width="760" height="170" rx="16" fill="#0b1118" stroke="#263645"/><text x="28" y="31" fill="#f6c453" font-size="13">COMMIT METEOR SHOWER</text><text x="28" y="51" fill="#6f8498" font-size="11">15 active days detected in the last 6 weeks · every spark is a commit day</text><g class="m" style="--delay:0.19s"><path d="M57 89l-18 18" stroke="#8ab4ff" stroke-width="2"/><circle cx="57" cy="89" r="4" fill="#f6c453"/></g><g class="m" style="--delay:0.57s"><path d="M91 77l-18 18" stroke="#8ab4ff" stroke-width="2"/><circle cx="91" cy="77" r="4" fill="#f6c453"/></g><g class="m" style="--delay:1.14s"><path d="M142 96l-18 18" stroke="#8ab4ff" stroke-width="2"/><circle cx="142" cy="96" r="6" fill="#f6c453"/></g><g class="m" style="--delay:1.33s"><path d="M159 127l-18 18" stroke="#8ab4ff" stroke-width="2"/><circle cx="159" cy="127" r="5" fill="#f6c453"/></g><g class="m" style="--delay:1.52s"><path d="M176 84l-18 18" stroke="#8ab4ff" stroke-width="2"/><circle cx="176" cy="84" r="6" fill="#f6c453"/></g><g class="m" style="--delay:1.71s"><path d="M193 115l-18 18" stroke="#8ab4ff" stroke-width="2"/><circle cx="193" cy="115" r="6" fill="#f6c453"/></g><g class="m" style="--delay:1.90s"><path d="M210 72l-18 18" stroke="#8ab4ff" stroke-width="2"/><circle cx="210" cy="72" r="3" fill="#f6c453"/></g><g class="m" style="--delay:2.09s"><path d="M227 103l-18 18" stroke="#8ab4ff" stroke-width="2"/><circle cx="227" cy="103" r="5" fill="#f6c453"/></g><g class="m" style="--delay:2.47s"><path d="M261 91l-18 18" stroke="#8ab4ff" stroke-width="2"/><circle cx="261" cy="91" r="6" fill="#f6c453"/></g><g class="m" style="--delay:2.85s"><path d="M295 79l-18 18" stroke="#8ab4ff" stroke-width="2"/><circle cx="295" cy="79" r="6" fill="#f6c453"/></g><g class="m" style="--delay:3.04s"><path d="M312 110l-18 18" stroke="#8ab4ff" stroke-width="2"/><circle cx="312" cy="110" r="3" fill="#f6c453"/></g><g class="m" style="--delay:4.18s"><path d="M414 74l-18 18" stroke="#8ab4ff" stroke-width="2"/><circle cx="414" cy="74" r="6" fill="#f6c453"/></g><g class="m" style="--delay:5.51s"><path d="M533 69l-18 18" stroke="#8ab4ff" stroke-width="2"/><circle cx="533" cy="69" r="4" fill="#f6c453"/></g><g class="m" style="--delay:7.22s"><path d="M686 126l-18 18" stroke="#8ab4ff" stroke-width="2"/><circle cx="686" cy="126" r="6" fill="#f6c453"/></g><g class="m" style="--delay:7.41s"><path d="M703 83l-18 18" stroke="#8ab4ff" stroke-width="2"/><circle cx="703" cy="83" r="4" fill="#f6c453"/></g><path d="M40 140h680" stroke="#173b34" stroke-width="2"/><text x="28" y="157" fill="#69e6a1" font-size="10">activity enters orbit → ideas become releases</text></svg>