<svg xmlns="http://www.w3.org/2000/svg" width="760" height="170" viewBox="0 0 760 170" role="img" aria-label="Commit meteor shower from recent GitHub activity">
<style>text{font-family:ui-monospace,SFMono-Regular,Menlo,monospace}.m{animation:fall 3.8s linear var(--delay) infinite;opacity:0}@keyframes fall{0%{transform:translate(-24px,-24px);opacity:0}15%{opacity:1}70%,100%{transform:translate(35px,35px);opacity:0}}</style><rect width="760" height="170" rx="16" fill="#0b1118" stroke="#263645"/><text x="28" y="31" fill="#f6c453" font-size="13">COMMIT METEOR SHOWER</text><text x="28" y="51" fill="#6f8498" font-size="11">15 active days detected in the last 6 weeks · every spark is a commit day</text><g class="m" style="--delay:0.38s"><path d="M74 120l-18 18" stroke="#8ab4ff" stroke-width="2"/><circle cx="74" cy="120" r="4" fill="#f6c453"/></g><g class="m" style="--delay:0.76s"><path d="M108 108l-18 18" stroke="#8ab4ff" stroke-width="2"/><circle cx="108" cy="108" r="4" fill="#f6c453"/></g><g class="m" style="--delay:1.33s"><path d="M159 127l-18 18" stroke="#8ab4ff" stroke-width="2"/><circle cx="159" cy="127" r="6" fill="#f6c453"/></g><g class="m" style="--delay:1.52s"><path d="M176 84l-18 18" stroke="#8ab4ff" stroke-width="2"/><circle cx="176" cy="84" r="5" fill="#f6c453"/></g><g class="m" style="--delay:1.71s"><path d="M193 115l-18 18" stroke="#8ab4ff" stroke-width="2"/><circle cx="193" cy="115" r="6" fill="#f6c453"/></g><g class="m" style="--delay:1.90s"><path d="M210 72l-18 18" stroke="#8ab4ff" stroke-width="2"/><circle cx="210" cy="72" r="6" fill="#f6c453"/></g><g class="m" style="--delay:2.09s"><path d="M227 103l-18 18" stroke="#8ab4ff" stroke-width="2"/><circle cx="227" cy="103" r="3" fill="#f6c453"/></g><g class="m" style="--delay:2.28s"><path d="M244 60l-18 18" stroke="#8ab4ff" stroke-width="2"/><circle cx="244" cy="60" r="5" fill="#f6c453"/></g><g class="m" style="--delay:2.66s"><path d="M278 122l-18 18" stroke="#8ab4ff" stroke-width="2"/><circle cx="278" cy="122" r="6" fill="#f6c453"/></g><g class="m" style="--delay:3.04s"><path d="M312 110l-18 18" stroke="#8ab4ff" stroke-width="2"/><circle cx="312" cy="110" r="6" fill="#f6c453"/></g><g class="m" style="--delay:3.23s"><path d="M329 67l-18 18" stroke="#8ab4ff" stroke-width="2"/><circle cx="329" cy="67" r="3" fill="#f6c453"/></g><g class="m" style="--delay:4.37s"><path d="M431 105l-18 18" stroke="#8ab4ff" stroke-width="2"/><circle cx="431" cy="105" r="6" fill="#f6c453"/></g><g class="m" style="--delay:5.70s"><path d="M550 100l-18 18" stroke="#8ab4ff" stroke-width="2"/><circle cx="550" cy="100" r="4" fill="#f6c453"/></g><g class="m" style="--delay:7.41s"><path d="M703 83l-18 18" stroke="#8ab4ff" stroke-width="2"/><circle cx="703" cy="83" r="6" fill="#f6c453"/></g><g class="m" style="--delay:7.60s"><path d="M40 114l-18 18" stroke="#8ab4ff" stroke-width="2"/><circle cx="40" cy="114" r="4" fill="#f6c453"/></g><path d="M40 140h680" stroke="#173b34" stroke-width="2"/><text x="28" y="157" fill="#69e6a1" font-size="10">activity enters orbit → ideas become releases</text></svg>