<svg xmlns="http://www.w3.org/2000/svg" width="760" height="170" viewBox="0 0 760 170" role="img" aria-label="Commit meteor shower from recent GitHub activity">
<style>text{font-family:ui-monospace,SFMono-Regular,Menlo,monospace}.m{animation:fall 3.8s linear var(--delay) infinite;opacity:0}@keyframes fall{0%{transform:translate(-24px,-24px);opacity:0}15%{opacity:1}70%,100%{transform:translate(35px,35px);opacity:0}}</style><rect width="760" height="170" rx="16" fill="#0b1118" stroke="#263645"/><text x="28" y="31" fill="#f6c453" font-size="13">COMMIT METEOR SHOWER</text><text x="28" y="51" fill="#6f8498" font-size="11">12 active days detected in the last 6 weeks · every spark is a commit day</text><g class="m" style="--delay:3.23s"><path d="M329 67l-18 18" stroke="#8ab4ff" stroke-width="2"/><circle cx="329" cy="67" r="4" fill="#f6c453"/></g><g class="m" style="--delay:3.61s"><path d="M363 129l-18 18" stroke="#8ab4ff" stroke-width="2"/><circle cx="363" cy="129" r="4" fill="#f6c453"/></g><g class="m" style="--delay:4.18s"><path d="M414 74l-18 18" stroke="#8ab4ff" stroke-width="2"/><circle cx="414" cy="74" r="6" fill="#f6c453"/></g><g class="m" style="--delay:4.37s"><path d="M431 105l-18 18" stroke="#8ab4ff" stroke-width="2"/><circle cx="431" cy="105" r="5" fill="#f6c453"/></g><g class="m" style="--delay:4.56s"><path d="M448 62l-18 18" stroke="#8ab4ff" stroke-width="2"/><circle cx="448" cy="62" r="6" fill="#f6c453"/></g><g class="m" style="--delay:4.75s"><path d="M465 93l-18 18" stroke="#8ab4ff" stroke-width="2"/><circle cx="465" cy="93" r="6" fill="#f6c453"/></g><g class="m" style="--delay:4.94s"><path d="M482 124l-18 18" stroke="#8ab4ff" stroke-width="2"/><circle cx="482" cy="124" r="3" fill="#f6c453"/></g><g class="m" style="--delay:5.13s"><path d="M499 81l-18 18" stroke="#8ab4ff" stroke-width="2"/><circle cx="499" cy="81" r="5" fill="#f6c453"/></g><g class="m" style="--delay:5.51s"><path d="M533 69l-18 18" stroke="#8ab4ff" stroke-width="2"/><circle cx="533" cy="69" r="6" fill="#f6c453"/></g><g class="m" style="--delay:5.89s"><path d="M567 131l-18 18" stroke="#8ab4ff" stroke-width="2"/><circle cx="567" cy="131" r="6" fill="#f6c453"/></g><g class="m" style="--delay:6.08s"><path d="M584 88l-18 18" stroke="#8ab4ff" stroke-width="2"/><circle cx="584" cy="88" r="3" fill="#f6c453"/></g><g class="m" style="--delay:7.22s"><path d="M686 126l-18 18" stroke="#8ab4ff" stroke-width="2"/><circle cx="686" cy="126" r="6" fill="#f6c453"/></g><path d="M40 140h680" stroke="#173b34" stroke-width="2"/><text x="28" y="157" fill="#69e6a1" font-size="10">activity enters orbit → ideas become releases</text></svg>