<svg xmlns="http://www.w3.org/2000/svg" width="760" height="230" viewBox="0 0 760 230" role="img" aria-labelledby="title desc">
<title id="title">4286 contributions mapped into a tiny pixel garden</title><desc id="desc">Higher contribution activity grows plants above the pixel garden.</desc>
<style>text{font-family:ui-monospace,SFMono-Regular,Menlo,monospace}.plant{transform-box:fill-box;transform-origin:bottom;animation:g 2.8s ease-in-out var(--delay) infinite alternate}@keyframes g{to{transform:translateY(-2px) scaleY(1.08)}}</style>
<rect width="760" height="230" rx="18" fill="#0b1118" stroke="#263645"/><text x="28" y="32" fill="#8ab4ff" font-size="14">GITHUB // COMMIT GARDEN</text><text x="28" y="52" fill="#dbe7f3" font-size="12">4286 contributions mapped into a tiny pixel garden</text>
<path d="M28 166H732" stroke="#31513f" stroke-width="3"/><path d="M28 169Q190 184 370 168T732 171" fill="none" stroke="#183828" stroke-width="13"/><rect x="34" y="68" width="10" height="10" rx="2" fill="#57e389"/><rect x="34" y="81" width="10" height="10" rx="2" fill="#173b34"/><rect x="34" y="94" width="10" height="10" rx="2" fill="#173b34"/><rect x="34" y="107" width="10" height="10" rx="2" fill="#17212b"/><rect x="34" y="120" width="10" height="10" rx="2" fill="#173b34"/><rect x="34" y="133" width="10" height="10" rx="2" fill="#176b4d"/><rect x="34" y="146" width="10" height="10" rx="2" fill="#17212b"/><rect x="47" y="68" width="10" height="10" rx="2" fill="#173b34"/><rect x="47" y="81" width="10" height="10" rx="2" fill="#176b4d"/><rect x="47" y="94" width="10" height="10" rx="2" fill="#173b34"/><rect x="47" y="107" width="10" height="10" rx="2" fill="#173b34"/><rect x="47" y="120" width="10" height="10" rx="2" fill="#57e389"/><rect x="47" y="133" width="10" height="10" rx="2" fill="#173b34"/><rect x="47" y="146" width="10" height="10" rx="2" fill="#176b4d"/><rect x="60" y="68" width="10" height="10" rx="2" fill="#17212b"/><rect x="60" y="81" width="10" height="10" rx="2" fill="#173b34"/><rect x="60" y="94" width="10" height="10" rx="2" fill="#176b4d"/><rect x="60" y="107" width="10" height="10" rx="2" fill="#173b34"/><rect x="60" y="120" width="10" height="10" rx="2" fill="#173b34"/><rect x="60" y="133" width="10" height="10" rx="2" fill="#17212b"/><rect x="60" y="146" width="10" height="10" rx="2" fill="#173b34"/><rect x="73" y="68" width="10" height="10" rx="2" fill="#173b34"/><rect x="73" y="81" width="10" height="10" rx="2" fill="#57e389"/><rect x="73" y="94" width="10" height="10" rx="2" fill="#173b34"/><rect x="73" y="107" width="10" height="10" rx="2" fill="#176b4d"/><rect x="73" y="120" width="10" height="10" rx="2" fill="#17212b"/><rect x="73" y="133" width="10" height="10" rx="2" fill="#173b34"/><rect x="73" y="146" width="10" height="10" rx="2" fill="#176b4d"/><rect x="86" y="68" width="10" height="10" rx="2" fill="#173b34"/><rect x="86" y="81" width="10" height="10" rx="2" fill="#173b34"/><rect x="86" y="94" width="10" height="10" rx="2" fill="#17212b"/><rect x="86" y="107" width="10" height="10" rx="2" fill="#173b34"/><rect x="86" y="120" width="10" height="10" rx="2" fill="#176b4d"/><rect x="86" y="133" width="10" height="10" rx="2" fill="#57e389"/><rect x="86" y="146" width="10" height="10" rx="2" fill="#173b34"/><rect x="99" y="68" width="10" height="10" rx="2" fill="#176b4d"/><rect x="99" y="81" width="10" height="10" rx="2" fill="#173b34"/><rect x="99" y="94" width="10" height="10" rx="2" fill="#173b34"/><rect x="99" y="107" width="10" height="10" rx="2" fill="#17212b"/><rect x="99" y="120" width="10" height="10" rx="2" fill="#173b34"/><rect x="99" y="133" width="10" height="10" rx="2" fill="#173b34"/><rect x="99" y="146" width="10" height="10" rx="2" fill="#17212b"/><rect x="112" y="68" width="10" height="10" rx="2" fill="#173b34"/><rect x="112" y="81" width="10" height="10" rx="2" fill="#176b4d"/><rect x="112" y="94" width="10" height="10" rx="2" fill="#57e389"/><rect x="112" y="107" width="10" height="10" rx="2" fill="#173b34"/><rect x="112" y="120" width="10" height="10" rx="2" fill="#176b4d"/><rect x="112" y="133" width="10" height="10" rx="2" fill="#173b34"/><rect x="112" y="146" width="10" height="10" rx="2" fill="#173b34"/><rect x="125" y="68" width="10" height="10" rx="2" fill="#17212b"/><rect x="125" y="81" width="10" height="10" rx="2" fill="#173b34"/><rect x="125" y="94" width="10" height="10" rx="2" fill="#176b4d"/><rect x="125" y="107" width="10" height="10" rx="2" fill="#17212b"/><rect x="125" y="120" width="10" height="10" rx="2" fill="#173b34"/><rect x="125" y="133" width="10" height="10" rx="2" fill="#176b4d"/><rect x="125" y="146" width="10" height="10" rx="2" fill="#57e389"/><rect x="138" y="68" width="10" height="10" rx="2" fill="#173b34"/><rect x="138" y="81" width="10" height="10" rx="2" fill="#17212b"/><rect x="138" y="94" width="10" height="10" rx="2" fill="#173b34"/><rect x="138" y="107" width="10" height="10" rx="2" fill="#173b34"/><rect x="138" y="120" width="10" height="10" rx="2" fill="#17212b"/><rect x="138" y="133" width="10" height="10" rx="2" fill="#173b34"/><rect x="138" y="146" width="10" height="10" rx="2" fill="#176b4d"/><rect x="151" y="68" width="10" height="10" rx="2" fill="#17212b"/><rect x="151" y="81" width="10" height="10" rx="2" fill="#173b34"/><rect x="151" y="94" width="10" height="10" rx="2" fill="#176b4d"/><rect x="151" y="107" width="10" height="10" rx="2" fill="#57e389"/><rect x="151" y="120" width="10" height="10" rx="2" fill="#173b34"/><rect x="151" y="133" width="10" height="10" rx="2" fill="#17212b"/><rect x="151" y="146" width="10" height="10" rx="2" fill="#173b34"/><rect x="164" y="68" width="10" height="10" rx="2" fill="#176b4d"/><rect x="164" y="81" width="10" height="10" rx="2" fill="#17212b"/><rect x="164" y="94" width="10" height="10" rx="2" fill="#173b34"/><rect x="164" y="107" width="10" height="10" rx="2" fill="#176b4d"/><rect x="164" y="120" width="10" height="10" rx="2" fill="#173b34"/><rect x="164" y="133" width="10" height="10" rx="2" fill="#173b34"/><rect x="164" y="146" width="10" height="10" rx="2" fill="#17212b"/><rect x="177" y="68" width="10" height="10" rx="2" fill="#57e389"/><rect x="177" y="81" width="10" height="10" rx="2" fill="#173b34"/><rect x="177" y="94" width="10" height="10" rx="2" fill="#17212b"/><rect x="177" y="107" width="10" height="10" rx="2" fill="#173b34"/><rect x="177" y="120" width="10" height="10" rx="2" fill="#176b4d"/><rect x="177" y="133" width="10" height="10" rx="2" fill="#17212b"/><rect x="177" y="146" width="10" height="10" rx="2" fill="#173b34"/><rect x="190" y="68" width="10" height="10" rx="2" fill="#176b4d"/><rect x="190" y="81" width="10" height="10" rx="2" fill="#173b34"/><rect x="190" y="94" width="10" height="10" rx="2" fill="#173b34"/><rect x="190" y="107" width="10" height="10" rx="2" fill="#17212b"/><rect x="190" y="120" width="10" height="10" rx="2" fill="#57e389"/><rect x="190" y="133" width="10" height="10" rx="2" fill="#176b4d"/><rect x="190" y="146" width="10" height="10" rx="2" fill="#17212b"/><rect x="203" y="68" width="10" height="10" rx="2" fill="#173b34"/><rect x="203" y="81" width="10" height="10" rx="2" fill="#176b4d"/><rect x="203" y="94" width="10" height="10" rx="2" fill="#173b34"/><rect x="203" y="107" width="10" height="10" rx="2" fill="#173b34"/><rect x="203" y="120" width="10" height="10" rx="2" fill="#17212b"/><rect x="203" y="133" width="10" height="10" rx="2" fill="#173b34"/><rect x="203" y="146" width="10" height="10" rx="2" fill="#173b34"/><rect x="216" y="68" width="10" height="10" rx="2" fill="#17212b"/><rect x="216" y="81" width="10" height="10" rx="2" fill="#57e389"/><rect x="216" y="94" width="10" height="10" rx="2" fill="#176b4d"/><rect x="216" y="107" width="10" height="10" rx="2" fill="#17212b"/><rect x="216" y="120" width="10" height="10" rx="2" fill="#173b34"/><rect x="216" y="133" width="10" height="10" rx="2" fill="#176b4d"/><rect x="216" y="146" width="10" height="10" rx="2" fill="#173b34"/><rect x="229" y="68" width="10" height="10" rx="2" fill="#173b34"/><rect x="229" y="81" width="10" height="10" rx="2" fill="#17212b"/><rect x="229" y="94" width="10" height="10" rx="2" fill="#173b34"/><rect x="229" y="107" width="10" height="10" rx="2" fill="#176b4d"/><rect x="229" y="120" width="10" height="10" rx="2" fill="#17212b"/><rect x="229" y="133" width="10" height="10" rx="2" fill="#57e389"/><rect x="229" y="146" width="10" height="10" rx="2" fill="#176b4d"/><rect x="242" y="68" width="10" height="10" rx="2" fill="#173b34"/><rect x="242" y="81" width="10" height="10" rx="2" fill="#173b34"/><rect x="242" y="94" width="10" height="10" rx="2" fill="#17212b"/><rect x="242" y="107" width="10" height="10" rx="2" fill="#173b34"/><rect x="242" y="120" width="10" height="10" rx="2" fill="#173b34"/><rect x="242" y="133" width="10" height="10" rx="2" fill="#17212b"/><rect x="242" y="146" width="10" height="10" rx="2" fill="#173b34"/><rect x="255" y="68" width="10" height="10" rx="2" fill="#176b4d"/><rect x="255" y="81" width="10" height="10" rx="2" fill="#17212b"/><rect x="255" y="94" width="10" height="10" rx="2" fill="#57e389"/><rect x="255" y="107" width="10" height="10" rx="2" fill="#176b4d"/><rect x="255" y="120" width="10" height="10" rx="2" fill="#173b34"/><rect x="255" y="133" width="10" height="10" rx="2" fill="#173b34"/><rect x="255" y="146" width="10" height="10" rx="2" fill="#17212b"/><rect x="268" y="68" width="10" height="10" rx="2" fill="#173b34"/><rect x="268" y="81" width="10" height="10" rx="2" fill="#176b4d"/><rect x="268" y="94" width="10" height="10" rx="2" fill="#17212b"/><rect x="268" y="107" width="10" height="10" rx="2" fill="#173b34"/><rect x="268" y="120" width="10" height="10" rx="2" fill="#176b4d"/><rect x="268" y="133" width="10" height="10" rx="2" fill="#173b34"/><rect x="268" y="146" width="10" height="10" rx="2" fill="#57e389"/><rect x="281" y="68" width="10" height="10" rx="2" fill="#17212b"/><rect x="281" y="81" width="10" height="10" rx="2" fill="#173b34"/><rect x="281" y="94" width="10" height="10" rx="2" fill="#173b34"/><rect x="281" y="107" width="10" height="10" rx="2" fill="#17212b"/><rect x="281" y="120" width="10" height="10" rx="2" fill="#173b34"/><rect x="281" y="133" width="10" height="10" rx="2" fill="#176b4d"/><rect x="281" y="146" width="10" height="10" rx="2" fill="#17212b"/><rect x="294" y="68" width="10" height="10" rx="2" fill="#173b34"/><rect x="294" y="81" width="10" height="10" rx="2" fill="#176b4d"/><rect x="294" y="94" width="10" height="10" rx="2" fill="#173b34"/><rect x="294" y="107" width="10" height="10" rx="2" fill="#57e389"/><rect x="294" y="120" width="10" height="10" rx="2" fill="#17212b"/><rect x="294" y="133" width="10" height="10" rx="2" fill="#173b34"/><rect x="294" y="146" width="10" height="10" rx="2" fill="#176b4d"/><rect x="307" y="68" width="10" height="10" rx="2" fill="#17212b"/><rect x="307" y="81" width="10" height="10" rx="2" fill="#173b34"/><rect x="307" y="94" width="10" height="10" rx="2" fill="#176b4d"/><rect x="307" y="107" width="10" height="10" rx="2" fill="#173b34"/><rect x="307" y="120" width="10" height="10" rx="2" fill="#173b34"/><rect x="307" y="133" width="10" height="10" rx="2" fill="#17212b"/><rect x="307" y="146" width="10" height="10" rx="2" fill="#173b34"/><rect x="320" y="68" width="10" height="10" rx="2" fill="#57e389"/><rect x="320" y="81" width="10" height="10" rx="2" fill="#17212b"/><rect x="320" y="94" width="10" height="10" rx="2" fill="#173b34"/><rect x="320" y="107" width="10" height="10" rx="2" fill="#176b4d"/><rect x="320" y="120" width="10" height="10" rx="2" fill="#17212b"/><rect x="320" y="133" width="10" height="10" rx="2" fill="#173b34"/><rect x="320" y="146" width="10" height="10" rx="2" fill="#176b4d"/><rect x="333" y="68" width="10" height="10" rx="2" fill="#173b34"/><rect x="333" y="81" width="10" height="10" rx="2" fill="#173b34"/><rect x="333" y="94" width="10" height="10" rx="2" fill="#17212b"/><rect x="333" y="107" width="10" height="10" rx="2" fill="#173b34"/><rect x="333" y="120" width="10" height="10" rx="2" fill="#57e389"/><rect x="333" y="133" width="10" height="10" rx="2" fill="#17212b"/><rect x="333" y="146" width="10" height="10" rx="2" fill="#173b34"/><rect x="346" y="68" width="10" height="10" rx="2" fill="#176b4d"/><rect x="346" y="81" width="10" height="10" rx="2" fill="#173b34"/><rect x="346" y="94" width="10" height="10" rx="2" fill="#173b34"/><rect x="346" y="107" width="10" height="10" rx="2" fill="#17212b"/><rect x="346" y="120" width="10" height="10" rx="2" fill="#173b34"/><rect x="346" y="133" width="10" height="10" rx="2" fill="#173b34"/><rect x="346" y="146" width="10" height="10" rx="2" fill="#17212b"/><rect x="359" y="68" width="10" height="10" rx="2" fill="#173b34"/><rect x="359" y="81" width="10" height="10" rx="2" fill="#57e389"/><rect x="359" y="94" width="10" height="10" rx="2" fill="#17212b"/><rect x="359" y="107" width="10" height="10" rx="2" fill="#173b34"/><rect x="359" y="120" width="10" height="10" rx="2" fill="#176b4d"/><rect x="359" y="133" width="10" height="10" rx="2" fill="#173b34"/><rect x="359" y="146" width="10" height="10" rx="2" fill="#173b34"/><rect x="372" y="68" width="10" height="10" rx="2" fill="#17212b"/><rect x="372" y="81" width="10" height="10" rx="2" fill="#173b34"/><rect x="372" y="94" width="10" height="10" rx="2" fill="#176b4d"/><rect x="372" y="107" width="10" height="10" rx="2" fill="#17212b"/><rect x="372" y="120" width="10" height="10" rx="2" fill="#173b34"/><rect x="372" y="133" width="10" height="10" rx="2" fill="#57e389"/><rect x="372" y="146" width="10" height="10" rx="2" fill="#173b34"/><rect x="385" y="68" width="10" height="10" rx="2" fill="#173b34"/><rect x="385" y="81" width="10" height="10" rx="2" fill="#17212b"/><rect x="385" y="94" width="10" height="10" rx="2" fill="#173b34"/><rect x="385" y="107" width="10" height="10" rx="2" fill="#173b34"/><rect x="385" y="120" width="10" height="10" rx="2" fill="#17212b"/><rect x="385" y="133" width="10" height="10" rx="2" fill="#173b34"/><rect x="385" y="146" width="10" height="10" rx="2" fill="#176b4d"/><rect x="398" y="68" width="10" height="10" rx="2" fill="#17212b"/><rect x="398" y="81" width="10" height="10" rx="2" fill="#173b34"/><rect x="398" y="94" width="10" height="10" rx="2" fill="#57e389"/><rect x="398" y="107" width="10" height="10" rx="2" fill="#173b34"/><rect x="398" y="120" width="10" height="10" rx="2" fill="#173b34"/><rect x="398" y="133" width="10" height="10" rx="2" fill="#17212b"/><rect x="398" y="146" width="10" height="10" rx="2" fill="#173b34"/><rect x="411" y="68" width="10" height="10" rx="2" fill="#176b4d"/><rect x="411" y="81" width="10" height="10" rx="2" fill="#17212b"/><rect x="411" y="94" width="10" height="10" rx="2" fill="#173b34"/><rect x="411" y="107" width="10" height="10" rx="2" fill="#176b4d"/><rect x="411" y="120" width="10" height="10" rx="2" fill="#173b34"/><rect x="411" y="133" width="10" height="10" rx="2" fill="#173b34"/><rect x="411" y="146" width="10" height="10" rx="2" fill="#57e389"/><rect x="424" y="68" width="10" height="10" rx="2" fill="#173b34"/><rect x="424" y="81" width="10" height="10" rx="2" fill="#173b34"/><rect x="424" y="94" width="10" height="10" rx="2" fill="#17212b"/><rect x="424" y="107" width="10" height="10" rx="2" fill="#173b34"/><rect x="424" y="120" width="10" height="10" rx="2" fill="#176b4d"/><rect x="424" y="133" width="10" height="10" rx="2" fill="#17212b"/><rect x="424" y="146" width="10" height="10" rx="2" fill="#173b34"/><rect x="437" y="68" width="10" height="10" rx="2" fill="#176b4d"/><rect x="437" y="81" width="10" height="10" rx="2" fill="#173b34"/><rect x="437" y="94" width="10" height="10" rx="2" fill="#173b34"/><rect x="437" y="107" width="10" height="10" rx="2" fill="#57e389"/><rect x="437" y="120" width="10" height="10" rx="2" fill="#173b34"/><rect x="437" y="133" width="10" height="10" rx="2" fill="#176b4d"/><rect x="437" y="146" width="10" height="10" rx="2" fill="#17212b"/><rect x="450" y="68" width="10" height="10" rx="2" fill="#173b34"/><rect x="450" y="81" width="10" height="10" rx="2" fill="#176b4d"/><rect x="450" y="94" width="10" height="10" rx="2" fill="#173b34"/><rect x="450" y="107" width="10" height="10" rx="2" fill="#173b34"/><rect x="450" y="120" width="10" height="10" rx="2" fill="#17212b"/><rect x="450" y="133" width="10" height="10" rx="2" fill="#173b34"/><rect x="450" y="146" width="10" height="10" rx="2" fill="#173b34"/><rect x="463" y="68" width="10" height="10" rx="2" fill="#57e389"/><rect x="463" y="81" width="10" height="10" rx="2" fill="#173b34"/><rect x="463" y="94" width="10" height="10" rx="2" fill="#176b4d"/><rect x="463" y="107" width="10" height="10" rx="2" fill="#17212b"/><rect x="463" y="120" width="10" height="10" rx="2" fill="#173b34"/><rect x="463" y="133" width="10" height="10" rx="2" fill="#176b4d"/><rect x="463" y="146" width="10" height="10" rx="2" fill="#173b34"/><rect x="476" y="68" width="10" height="10" rx="2" fill="#173b34"/><rect x="476" y="81" width="10" height="10" rx="2" fill="#17212b"/><rect x="476" y="94" width="10" height="10" rx="2" fill="#173b34"/><rect x="476" y="107" width="10" height="10" rx="2" fill="#176b4d"/><rect x="476" y="120" width="10" height="10" rx="2" fill="#57e389"/><rect x="476" y="133" width="10" height="10" rx="2" fill="#173b34"/><rect x="476" y="146" width="10" height="10" rx="2" fill="#176b4d"/><rect x="489" y="68" width="10" height="10" rx="2" fill="#173b34"/><rect x="489" y="81" width="10" height="10" rx="2" fill="#173b34"/><rect x="489" y="94" width="10" height="10" rx="2" fill="#17212b"/><rect x="489" y="107" width="10" height="10" rx="2" fill="#173b34"/><rect x="489" y="120" width="10" height="10" rx="2" fill="#173b34"/><rect x="489" y="133" width="10" height="10" rx="2" fill="#17212b"/><rect x="489" y="146" width="10" height="10" rx="2" fill="#173b34"/><rect x="502" y="68" width="10" height="10" rx="2" fill="#176b4d"/><rect x="502" y="81" width="10" height="10" rx="2" fill="#57e389"/><rect x="502" y="94" width="10" height="10" rx="2" fill="#173b34"/><rect x="502" y="107" width="10" height="10" rx="2" fill="#176b4d"/><rect x="502" y="120" width="10" height="10" rx="2" fill="#173b34"/><rect x="502" y="133" width="10" height="10" rx="2" fill="#173b34"/><rect x="502" y="146" width="10" height="10" rx="2" fill="#17212b"/><rect x="515" y="68" width="10" height="10" rx="2" fill="#173b34"/><rect x="515" y="81" width="10" height="10" rx="2" fill="#176b4d"/><rect x="515" y="94" width="10" height="10" rx="2" fill="#17212b"/><rect x="515" y="107" width="10" height="10" rx="2" fill="#173b34"/><rect x="515" y="120" width="10" height="10" rx="2" fill="#176b4d"/><rect x="515" y="133" width="10" height="10" rx="2" fill="#57e389"/><rect x="515" y="146" width="10" height="10" rx="2" fill="#173b34"/><rect x="528" y="68" width="10" height="10" rx="2" fill="#17212b"/><rect x="528" y="81" width="10" height="10" rx="2" fill="#173b34"/><rect x="528" y="94" width="10" height="10" rx="2" fill="#173b34"/><rect x="528" y="107" width="10" height="10" rx="2" fill="#17212b"/><rect x="528" y="120" width="10" height="10" rx="2" fill="#173b34"/><rect x="528" y="133" width="10" height="10" rx="2" fill="#176b4d"/><rect x="528" y="146" width="10" height="10" rx="2" fill="#17212b"/><rect x="541" y="68" width="10" height="10" rx="2" fill="#173b34"/><rect x="541" y="81" width="10" height="10" rx="2" fill="#176b4d"/><rect x="541" y="94" width="10" height="10" rx="2" fill="#57e389"/><rect x="541" y="107" width="10" height="10" rx="2" fill="#173b34"/><rect x="541" y="120" width="10" height="10" rx="2" fill="#17212b"/><rect x="541" y="133" width="10" height="10" rx="2" fill="#173b34"/><rect x="541" y="146" width="10" height="10" rx="2" fill="#176b4d"/><rect x="554" y="68" width="10" height="10" rx="2" fill="#17212b"/><rect x="554" y="81" width="10" height="10" rx="2" fill="#173b34"/><rect x="554" y="94" width="10" height="10" rx="2" fill="#176b4d"/><rect x="554" y="107" width="10" height="10" rx="2" fill="#173b34"/><rect x="554" y="120" width="10" height="10" rx="2" fill="#173b34"/><rect x="554" y="133" width="10" height="10" rx="2" fill="#17212b"/><rect x="554" y="146" width="10" height="10" rx="2" fill="#57e389"/><rect x="567" y="68" width="10" height="10" rx="2" fill="#173b34"/><rect x="567" y="81" width="10" height="10" rx="2" fill="#17212b"/><rect x="567" y="94" width="10" height="10" rx="2" fill="#173b34"/><rect x="567" y="107" width="10" height="10" rx="2" fill="#176b4d"/><rect x="567" y="120" width="10" height="10" rx="2" fill="#17212b"/><rect x="567" y="133" width="10" height="10" rx="2" fill="#173b34"/><rect x="567" y="146" width="10" height="10" rx="2" fill="#176b4d"/><rect x="580" y="68" width="10" height="10" rx="2" fill="#173b34"/><rect x="580" y="81" width="10" height="10" rx="2" fill="#173b34"/><rect x="580" y="94" width="10" height="10" rx="2" fill="#17212b"/><rect x="580" y="107" width="10" height="10" rx="2" fill="#57e389"/><rect x="580" y="120" width="10" height="10" rx="2" fill="#176b4d"/><rect x="580" y="133" width="10" height="10" rx="2" fill="#17212b"/><rect x="580" y="146" width="10" height="10" rx="2" fill="#173b34"/><rect x="593" y="68" width="10" height="10" rx="2" fill="#176b4d"/><rect x="593" y="81" width="10" height="10" rx="2" fill="#173b34"/><rect x="593" y="94" width="10" height="10" rx="2" fill="#173b34"/><rect x="593" y="107" width="10" height="10" rx="2" fill="#17212b"/><rect x="593" y="120" width="10" height="10" rx="2" fill="#173b34"/><rect x="593" y="133" width="10" height="10" rx="2" fill="#173b34"/><rect x="593" y="146" width="10" height="10" rx="2" fill="#17212b"/><rect x="606" y="68" width="10" height="10" rx="2" fill="#57e389"/><rect x="606" y="81" width="10" height="10" rx="2" fill="#176b4d"/><rect x="606" y="94" width="10" height="10" rx="2" fill="#17212b"/><rect x="606" y="107" width="10" height="10" rx="2" fill="#173b34"/><rect x="606" y="120" width="10" height="10" rx="2" fill="#176b4d"/><rect x="606" y="133" width="10" height="10" rx="2" fill="#173b34"/><rect x="606" y="146" width="10" height="10" rx="2" fill="#173b34"/><rect x="619" y="68" width="10" height="10" rx="2" fill="#17212b"/><rect x="619" y="81" width="10" height="10" rx="2" fill="#173b34"/><rect x="619" y="94" width="10" height="10" rx="2" fill="#176b4d"/><rect x="619" y="107" width="10" height="10" rx="2" fill="#17212b"/><rect x="619" y="120" width="10" height="10" rx="2" fill="#57e389"/><rect x="619" y="133" width="10" height="10" rx="2" fill="#176b4d"/><rect x="619" y="146" width="10" height="10" rx="2" fill="#173b34"/><rect x="632" y="68" width="10" height="10" rx="2" fill="#173b34"/><rect x="632" y="81" width="10" height="10" rx="2" fill="#17212b"/><rect x="632" y="94" width="10" height="10" rx="2" fill="#173b34"/><rect x="632" y="107" width="10" height="10" rx="2" fill="#173b34"/><rect x="632" y="120" width="10" height="10" rx="2" fill="#17212b"/><rect x="632" y="133" width="10" height="10" rx="2" fill="#173b34"/><rect x="632" y="146" width="10" height="10" rx="2" fill="#176b4d"/><rect x="645" y="68" width="10" height="10" rx="2" fill="#17212b"/><rect x="645" y="81" width="10" height="10" rx="2" fill="#57e389"/><rect x="645" y="94" width="10" height="10" rx="2" fill="#176b4d"/><rect x="645" y="107" width="10" height="10" rx="2" fill="#173b34"/><rect x="645" y="120" width="10" height="10" rx="2" fill="#173b34"/><rect x="645" y="133" width="10" height="10" rx="2" fill="#17212b"/><rect x="645" y="146" width="10" height="10" rx="2" fill="#173b34"/><rect x="658" y="68" width="10" height="10" rx="2" fill="#176b4d"/><rect x="658" y="81" width="10" height="10" rx="2" fill="#17212b"/><rect x="658" y="94" width="10" height="10" rx="2" fill="#173b34"/><rect x="658" y="107" width="10" height="10" rx="2" fill="#176b4d"/><rect x="658" y="120" width="10" height="10" rx="2" fill="#173b34"/><rect x="658" y="133" width="10" height="10" rx="2" fill="#57e389"/><rect x="658" y="146" width="10" height="10" rx="2" fill="#17212b"/><rect x="671" y="68" width="10" height="10" rx="2" fill="#173b34"/><rect x="671" y="81" width="10" height="10" rx="2" fill="#173b34"/><rect x="671" y="94" width="10" height="10" rx="2" fill="#17212b"/><rect x="671" y="107" width="10" height="10" rx="2" fill="#173b34"/><rect x="671" y="120" width="10" height="10" rx="2" fill="#176b4d"/><rect x="671" y="133" width="10" height="10" rx="2" fill="#17212b"/><rect x="671" y="146" width="10" height="10" rx="2" fill="#173b34"/><rect x="684" y="68" width="10" height="10" rx="2" fill="#176b4d"/><rect x="684" y="81" width="10" height="10" rx="2" fill="#173b34"/><rect x="684" y="94" width="10" height="10" rx="2" fill="#57e389"/><rect x="684" y="107" width="10" height="10" rx="2" fill="#17212b"/><rect x="684" y="120" width="10" height="10" rx="2" fill="#173b34"/><rect x="684" y="133" width="10" height="10" rx="2" fill="#176b4d"/><rect x="684" y="146" width="10" height="10" rx="2" fill="#17212b"/><rect x="697" y="68" width="10" height="10" rx="2" fill="#173b34"/><rect x="697" y="81" width="10" height="10" rx="2" fill="#176b4d"/><rect x="697" y="94" width="10" height="10" rx="2" fill="#173b34"/><rect x="697" y="107" width="10" height="10" rx="2" fill="#173b34"/><rect x="697" y="120" width="10" height="10" rx="2" fill="#17212b"/><rect x="697" y="133" width="10" height="10" rx="2" fill="#173b34"/><rect x="697" y="146" width="10" height="10" rx="2" fill="#57e389"/><g transform="translate(39,68)" class="plant" style="--delay:0.00s"><rect x="-1" y="-12" width="2" height="12" fill="#69e6a1"/><rect x="-7" y="-11" width="6" height="4" fill="#69e6a1"/><rect x="1" y="-7" width="6" height="4" fill="#69e6a1"/></g><g transform="translate(52,120)" class="plant" style="--delay:0.85s"><rect x="-1" y="-12" width="2" height="12" fill="#f6c453"/><rect x="-7" y="-11" width="6" height="4" fill="#f6c453"/><rect x="1" y="-7" width="6" height="4" fill="#f6c453"/></g><g transform="translate(78,81)" class="plant" style="--delay:0.68s"><rect x="-1" y="-12" width="2" height="12" fill="#69e6a1"/><rect x="-7" y="-11" width="6" height="4" fill="#69e6a1"/><rect x="1" y="-7" width="6" height="4" fill="#69e6a1"/></g><g transform="translate(91,133)" class="plant" style="--delay:0.00s"><rect x="-1" y="-12" width="2" height="12" fill="#f6c453"/><rect x="-7" y="-11" width="6" height="4" fill="#f6c453"/><rect x="1" y="-7" width="6" height="4" fill="#f6c453"/></g><g transform="translate(117,94)" class="plant" style="--delay:1.36s"><rect x="-1" y="-12" width="2" height="12" fill="#69e6a1"/><rect x="-7" y="-11" width="6" height="4" fill="#69e6a1"/><rect x="1" y="-7" width="6" height="4" fill="#69e6a1"/></g><g transform="translate(130,146)" class="plant" style="--delay:0.68s"><rect x="-1" y="-12" width="2" height="12" fill="#f6c453"/><rect x="-7" y="-11" width="6" height="4" fill="#f6c453"/><rect x="1" y="-7" width="6" height="4" fill="#f6c453"/></g><g transform="translate(156,107)" class="plant" style="--delay:0.51s"><rect x="-1" y="-12" width="2" height="12" fill="#69e6a1"/><rect x="-7" y="-11" width="6" height="4" fill="#69e6a1"/><rect x="1" y="-7" width="6" height="4" fill="#69e6a1"/></g><g transform="translate(182,68)" class="plant" style="--delay:0.34s"><rect x="-1" y="-12" width="2" height="12" fill="#8ab4ff"/><rect x="-7" y="-11" width="6" height="4" fill="#8ab4ff"/><rect x="1" y="-7" width="6" height="4" fill="#8ab4ff"/></g><g transform="translate(195,120)" class="plant" style="--delay:1.19s"><rect x="-1" y="-12" width="2" height="12" fill="#69e6a1"/><rect x="-7" y="-11" width="6" height="4" fill="#69e6a1"/><rect x="1" y="-7" width="6" height="4" fill="#69e6a1"/></g><g transform="translate(221,81)" class="plant" style="--delay:1.02s"><rect x="-1" y="-12" width="2" height="12" fill="#8ab4ff"/><rect x="-7" y="-11" width="6" height="4" fill="#8ab4ff"/><rect x="1" y="-7" width="6" height="4" fill="#8ab4ff"/></g><g transform="translate(234,133)" class="plant" style="--delay:0.34s"><rect x="-1" y="-12" width="2" height="12" fill="#69e6a1"/><rect x="-7" y="-11" width="6" height="4" fill="#69e6a1"/><rect x="1" y="-7" width="6" height="4" fill="#69e6a1"/></g><g transform="translate(260,94)" class="plant" style="--delay:0.17s"><rect x="-1" y="-12" width="2" height="12" fill="#8ab4ff"/><rect x="-7" y="-11" width="6" height="4" fill="#8ab4ff"/><rect x="1" y="-7" width="6" height="4" fill="#8ab4ff"/></g><g transform="translate(273,146)" class="plant" style="--delay:1.02s"><rect x="-1" y="-12" width="2" height="12" fill="#69e6a1"/><rect x="-7" y="-11" width="6" height="4" fill="#69e6a1"/><rect x="1" y="-7" width="6" height="4" fill="#69e6a1"/></g><g transform="translate(299,107)" class="plant" style="--delay:0.85s"><rect x="-1" y="-12" width="2" height="12" fill="#8ab4ff"/><rect x="-7" y="-11" width="6" height="4" fill="#8ab4ff"/><rect x="1" y="-7" width="6" height="4" fill="#8ab4ff"/></g><g transform="translate(325,68)" class="plant" style="--delay:0.68s"><rect x="-1" y="-12" width="2" height="12" fill="#ff7b72"/><rect x="-7" y="-11" width="6" height="4" fill="#ff7b72"/><rect x="1" y="-7" width="6" height="4" fill="#ff7b72"/></g><g transform="translate(338,120)" class="plant" style="--delay:0.00s"><rect x="-1" y="-12" width="2" height="12" fill="#8ab4ff"/><rect x="-7" y="-11" width="6" height="4" fill="#8ab4ff"/><rect x="1" y="-7" width="6" height="4" fill="#8ab4ff"/></g><g transform="translate(364,81)" class="plant" style="--delay:1.36s"><rect x="-1" y="-12" width="2" height="12" fill="#ff7b72"/><rect x="-7" y="-11" width="6" height="4" fill="#ff7b72"/><rect x="1" y="-7" width="6" height="4" fill="#ff7b72"/></g><g transform="translate(377,133)" class="plant" style="--delay:0.68s"><rect x="-1" y="-12" width="2" height="12" fill="#8ab4ff"/><rect x="-7" y="-11" width="6" height="4" fill="#8ab4ff"/><rect x="1" y="-7" width="6" height="4" fill="#8ab4ff"/></g><g transform="translate(403,94)" class="plant" style="--delay:0.51s"><rect x="-1" y="-12" width="2" height="12" fill="#ff7b72"/><rect x="-7" y="-11" width="6" height="4" fill="#ff7b72"/><rect x="1" y="-7" width="6" height="4" fill="#ff7b72"/></g><g transform="translate(416,146)" class="plant" style="--delay:1.36s"><rect x="-1" y="-12" width="2" height="12" fill="#8ab4ff"/><rect x="-7" y="-11" width="6" height="4" fill="#8ab4ff"/><rect x="1" y="-7" width="6" height="4" fill="#8ab4ff"/></g><g transform="translate(442,107)" class="plant" style="--delay:1.19s"><rect x="-1" y="-12" width="2" height="12" fill="#ff7b72"/><rect x="-7" y="-11" width="6" height="4" fill="#ff7b72"/><rect x="1" y="-7" width="6" height="4" fill="#ff7b72"/></g><g transform="translate(468,68)" class="plant" style="--delay:1.02s"><rect x="-1" y="-12" width="2" height="12" fill="#f6c453"/><rect x="-7" y="-11" width="6" height="4" fill="#f6c453"/><rect x="1" y="-7" width="6" height="4" fill="#f6c453"/></g><g transform="translate(481,120)" class="plant" style="--delay:0.34s"><rect x="-1" y="-12" width="2" height="12" fill="#ff7b72"/><rect x="-7" y="-11" width="6" height="4" fill="#ff7b72"/><rect x="1" y="-7" width="6" height="4" fill="#ff7b72"/></g><g transform="translate(507,81)" class="plant" style="--delay:0.17s"><rect x="-1" y="-12" width="2" height="12" fill="#f6c453"/><rect x="-7" y="-11" width="6" height="4" fill="#f6c453"/><rect x="1" y="-7" width="6" height="4" fill="#f6c453"/></g><g transform="translate(520,133)" class="plant" style="--delay:1.02s"><rect x="-1" y="-12" width="2" height="12" fill="#ff7b72"/><rect x="-7" y="-11" width="6" height="4" fill="#ff7b72"/><rect x="1" y="-7" width="6" height="4" fill="#ff7b72"/></g><g transform="translate(546,94)" class="plant" style="--delay:0.85s"><rect x="-1" y="-12" width="2" height="12" fill="#f6c453"/><rect x="-7" y="-11" width="6" height="4" fill="#f6c453"/><rect x="1" y="-7" width="6" height="4" fill="#f6c453"/></g><g transform="translate(559,146)" class="plant" style="--delay:0.17s"><rect x="-1" y="-12" width="2" height="12" fill="#ff7b72"/><rect x="-7" y="-11" width="6" height="4" fill="#ff7b72"/><rect x="1" y="-7" width="6" height="4" fill="#ff7b72"/></g><g transform="translate(585,107)" class="plant" style="--delay:0.00s"><rect x="-1" y="-12" width="2" height="12" fill="#f6c453"/><rect x="-7" y="-11" width="6" height="4" fill="#f6c453"/><rect x="1" y="-7" width="6" height="4" fill="#f6c453"/></g><g transform="translate(611,68)" class="plant" style="--delay:1.36s"><rect x="-1" y="-12" width="2" height="12" fill="#69e6a1"/><rect x="-7" y="-11" width="6" height="4" fill="#69e6a1"/><rect x="1" y="-7" width="6" height="4" fill="#69e6a1"/></g><g transform="translate(624,120)" class="plant" style="--delay:0.68s"><rect x="-1" y="-12" width="2" height="12" fill="#f6c453"/><rect x="-7" y="-11" width="6" height="4" fill="#f6c453"/><rect x="1" y="-7" width="6" height="4" fill="#f6c453"/></g><g transform="translate(650,81)" class="plant" style="--delay:0.51s"><rect x="-1" y="-12" width="2" height="12" fill="#69e6a1"/><rect x="-7" y="-11" width="6" height="4" fill="#69e6a1"/><rect x="1" y="-7" width="6" height="4" fill="#69e6a1"/></g><g transform="translate(663,133)" class="plant" style="--delay:1.36s"><rect x="-1" y="-12" width="2" height="12" fill="#f6c453"/><rect x="-7" y="-11" width="6" height="4" fill="#f6c453"/><rect x="1" y="-7" width="6" height="4" fill="#f6c453"/></g><g transform="translate(689,94)" class="plant" style="--delay:1.19s"><rect x="-1" y="-12" width="2" height="12" fill="#69e6a1"/><rect x="-7" y="-11" width="6" height="4" fill="#69e6a1"/><rect x="1" y="-7" width="6" height="4" fill="#69e6a1"/></g><g transform="translate(702,146)" class="plant" style="--delay:0.51s"><rect x="-1" y="-12" width="2" height="12" fill="#f6c453"/><rect x="-7" y="-11" width="6" height="4" fill="#f6c453"/><rect x="1" y="-7" width="6" height="4" fill="#f6c453"/></g>
<text x="28" y="205" fill="#6f8498" font-size="10">updated 2026-08-30 16:48 UTC · plants bloom when activity spikes</text><text x="600" y="205" fill="#57e389" font-size="10">■ growing</text>
</svg>